<svg xmlns="http://www.w3.org/2000/svg" viewBox="0 0 22.98 22.97"><title>ALL</title><g id="Layer_2" data-name="Layer 2"><g id="Layer_1-2" data-name="Layer 1"><path d="M23,11.48A11.49,11.49,0,1,1,11.43,0,11.48,11.48,0,0,1,23,11.48" fill="#0082c9"/><path d="M14.69,18.46h1.76V19H14.69ZM6.53,19H8.3v-.51H6.53ZM17.06,4.33V18.06a.32.32,0,0,1-.32.32H6.24a.32.32,0,0,1-.32-.32V4.33A.32.32,0,0,1,6.24,4h10.5a.32.32,0,0,1,.32.32m-.81.6a.11.11,0,0,0-.11-.11H6.84a.11.11,0,0,0-.11.11v5.94a.11.11,0,0,0,.11.11h9.3a.11.11,0,0,0,.11-.11ZM7.17,5.2H15.8v5.39H7.17ZM9.94,6.51a.1.1,0,0,0,.1.1h2.88a.1.1,0,0,0,.1-.1V5.9a.1.1,0,0,0-.1-.1H10a.1.1,0,0,0-.1.1Zm6.31,5.22a.11.11,0,0,0-.11-.11H6.84a.11.11,0,0,0-.11.11v5.94a.11.11,0,0,0,.11.11h9.3a.11.11,0,0,0,.11-.11ZM7.17,12H15.8v5.39H7.17Zm2.77,1.31a.1.1,0,0,0,.1.1h2.88a.1.1,0,0,0,.1-.1V12.7a.1.1,0,0,0-.1-.1H10a.1.1,0,0,0-.1.1Z" fill="#fff"/></g></g></svg>