<svg xmlns="http://www.w3.org/2000/svg" viewBox="0 0 16 11.4"><title>BPO</title><g id="Layer_2" data-name="Layer 2"><g id="Layer_1-2" data-name="Layer 1"><path d="M0,6.53a1.49,1.49,0,0,1,.38-.77,1.3,1.3,0,0,1,.92-.39c.12,0,.16,0,.18-.16A6.55,6.55,0,0,1,3.13,2.12a6.54,6.54,0,0,1,3.57-2A6.51,6.51,0,0,1,11,.71a6.6,6.6,0,0,1,3.22,3.51,8.76,8.76,0,0,1,.31,1c0,.1.07.13.17.14a1.28,1.28,0,0,1,1.17.75,1.1,1.1,0,0,1,.12.45,14.42,14.42,0,0,1,0,1.53A1.25,1.25,0,0,1,14.8,9.21c-.45,0-.9,0-1.34,0A.52.52,0,0,1,13,8.66c0-.73,0-1.46,0-2.19V6c0-.4.09-.54.46-.68a5.58,5.58,0,0,0-10.85,0C3,5.51,3,5.63,3,6Q3,7.32,3,8.59a.55.55,0,0,1-.63.63c-.32,0-.65,0-1,0A1.34,1.34,0,0,1,0,8.09l0,0Z" fill="#939598"/><path d="M11.92,9.27a4.39,4.39,0,0,1-1.46,1.41,4.57,4.57,0,0,1-5.06-.1A4.52,4.52,0,0,1,3.34,7.25,4.72,4.72,0,0,1,6.68,2.18a4.61,4.61,0,0,1,3.9.59,4.55,4.55,0,0,1,2.07,3.3,4.6,4.6,0,0,1-.26,2.26.15.15,0,0,1-.17.12H9.75a.29.29,0,0,1-.19-.1,1.3,1.3,0,0,0-1.86,0A.8.8,0,0,0,8,9.6a1.3,1.3,0,0,0,1.58-.28.18.18,0,0,1,.13-.06h2.19" fill="#939598"/></g></g></svg>