<svg xmlns="http://www.w3.org/2000/svg" viewBox="0 0 12.58 14.09"><title>calendar</title><g id="Layer_2" data-name="Layer 2"><g id="Layer_1-2" data-name="Layer 1"><path d="M10.21,2.2H9.05V0h1.16ZM0,5H12.58v9.14H0Zm6.64,6.52a.35.35,0,0,0-.35-.35.34.34,0,0,0-.24.1.33.33,0,0,0-.1.24.31.31,0,0,0,.1.24.36.36,0,0,0,.49,0,.32.32,0,0,0,.1-.24m-2.71-.41H8.65v-.21l-.92-.8V8.8A1.43,1.43,0,0,0,6.6,7.41v-.3H6v.3a1.36,1.36,0,0,0-.81.49,1.38,1.38,0,0,0-.32.9v1.25l-.93.8ZM3.52,0H2.37V2.2H3.52ZM11,1V3H8.23V1H4.35V3H1.54V1H0V4.16H12.58V1Z" fill="#ee6724"/></g></g></svg>