<svg xmlns="http://www.w3.org/2000/svg" viewBox="0 0 26.91 21.49"><title>caption</title><g id="Layer_2" data-name="Layer 2"><g id="Layer_1-2" data-name="Layer 1"><path d="M24.71,18H15.35v3.1L9,18H2.2A2,2,0,0,1,.25,16V2.2a2,2,0,0,1,2-2H24.71a2,2,0,0,1,1.95,2V16A2,2,0,0,1,24.71,18" fill="#fff"/><path d="M24.71,18H15.35v3.1L9,18H2.2A2,2,0,0,1,.25,16V2.2a2,2,0,0,1,2-2H24.71a2,2,0,0,1,1.95,2V16A2,2,0,0,1,24.71,18Z" fill="none" stroke="#77787b" stroke-miterlimit="10" stroke-width="0.5"/></g></g></svg>