<svg xmlns="http://www.w3.org/2000/svg" viewBox="0 0 12.11 14.55"><title>files</title><g id="Layer_2" data-name="Layer 2"><g id="Layer_1-2" data-name="Layer 1"><path d="M11.72,6h-.56V0H2.35V1.2H1V7.54H.39A.39.39,0,0,0,0,7.93v6.23a.39.39,0,0,0,.39.39H11.72a.39.39,0,0,0,.39-.39V6.34A.39.39,0,0,0,11.72,6M2.76.41h8V6H10V1.2H2.76ZM1.45,1.6H9.58V6H6.67L5.13,7.54H1.45ZM.41,8H5.3l.08-.08,1.45-1.5H11.7V7.7a8.2,8.2,0,0,1-2.57,4.52,8.73,8.73,0,0,1-4.26,1.92H.41Z" fill="#939598"/><rect x="3" y="2.57" width="4.97" height="0.41" fill="#939598"/><rect x="3" y="4.13" width="4.97" height="0.41" fill="#939598"/><rect x="3" y="5.69" width="2.06" height="0.41" fill="#939598"/></g></g></svg>