<svg xmlns="http://www.w3.org/2000/svg" viewBox="0 0 23.94 22.53"><title>info</title><g id="Layer_2" data-name="Layer 2"><g id="Layer_1-2" data-name="Layer 1"><path d="M4.39,18V5.89A2.58,2.58,0,0,1,7,3.31H19.06a2.63,2.63,0,0,1,.44,0A2.57,2.57,0,0,0,17.24,2H5.15A2.58,2.58,0,0,0,2.57,4.58V16.66A2.58,2.58,0,0,0,4.71,19.2,2.56,2.56,0,0,1,4.39,18" fill="#a7a9ac"/><path d="M1.82,16V3.89A2.58,2.58,0,0,1,4.41,1.31H16.49a2.63,2.63,0,0,1,.44,0A2.57,2.57,0,0,0,14.67,0H2.58A2.58,2.58,0,0,0,0,2.58V14.67a2.58,2.58,0,0,0,2.15,2.54A2.56,2.56,0,0,1,1.82,16" fill="#d1d3d4"/><path d="M21.88,22.28H7.81A1.81,1.81,0,0,1,6,20.47V6.4A1.81,1.81,0,0,1,7.81,4.59H21.88A1.81,1.81,0,0,1,23.69,6.4V20.47a1.81,1.81,0,0,1-1.81,1.81" fill="#fff"/><rect x="6" y="4.59" width="17.68" height="17.68" rx="1.81" ry="1.81" fill="none" stroke="#77787b" stroke-miterlimit="10" stroke-width="0.5"/></g></g></svg>