<svg xmlns="http://www.w3.org/2000/svg" xmlns:xlink="http://www.w3.org/1999/xlink" viewBox="0 0 158.42 41.9"><defs><clipPath id="clip-path"><rect x="2.42" y="1.68" width="152.88" height="38.21" rx="1.79" ry="1.79" fill="none"/></clipPath></defs><title>LOGO</title><g id="Layer_2" data-name="Layer 2"><g id="Layer_1-2" data-name="Layer 1"><path d="M153.66,41.46H4.05a3.21,3.21,0,0,1-3.21-3.2V3.31A3.2,3.2,0,0,1,4.05.11H153.66a3.2,3.2,0,0,1,3.2,3.2V38.26a3.21,3.21,0,0,1-3.2,3.2" fill="#f06623"/><g clip-path="url(#clip-path)"><polygon points="24.93 0.84 18.93 19 25.5 41.06 14.69 41.06 10.46 23.82 10.46 41.06 0 41.06 0 0.84 10.46 0.84 10.46 16.47 15.11 0.84 24.93 0.84" fill="#fff"/><path d="M66.66.84,62,41.06H49Q47.16,31.79,45.79,20,45.16,25,42.87,41.06h-13L25.21.84H35.37l1.1,14,1.07,13.56Q38.12,17.91,40.43.84H51.29q.22,1.76,1.14,13.26l1.15,15.3q.89-14.6,2.92-28.56Z" fill="#fff"/><rect x="67.99" y="0.84" width="10.46" height="40.21" fill="#fff"/><path d="M105.83,18.35H95.37v-7A12.5,12.5,0,0,0,95,7.56a1.44,1.44,0,0,0-1.48-.76,1.54,1.54,0,0,0-1.64.92,14,14,0,0,0-.35,4V30.38a13,13,0,0,0,.35,3.82,1.49,1.49,0,0,0,1.57.9A1.47,1.47,0,0,0,95,34.2,14.62,14.62,0,0,0,95.37,30V24.94h10.46V26.5q0,6.24-.88,8.85a9,9,0,0,1-3.9,4.58,13.35,13.35,0,0,1-7.44,2A15.41,15.41,0,0,1,86,40.24a8.1,8.1,0,0,1-3.95-4.61,30.22,30.22,0,0,1-1-8.85V15a52.42,52.42,0,0,1,.3-6.52,9.12,9.12,0,0,1,1.78-4.19,9.89,9.89,0,0,1,4.1-3.17,16.78,16.78,0,0,1,13.65.63,8.58,8.58,0,0,1,3.95,4.45,26.77,26.77,0,0,1,.94,8.3Z" fill="#fff"/><polygon points="133.77 0.84 127.77 19 134.34 41.06 123.53 41.06 119.3 23.82 119.3 41.06 108.84 41.06 108.84 0.84 119.3 0.84 119.3 16.47 123.96 0.84 133.77 0.84" fill="#fff"/><path d="M158.42.84,150.79,26.5V41.06h-9.69V26.5L133.75.84h9.61q2.25,11.77,2.54,15.85.87-6.44,2.91-15.85Z" fill="#fff"/></g></g></g></svg>