<svg xmlns="http://www.w3.org/2000/svg" viewBox="0 0 22.98 22.98"><title>Mail</title><g id="Layer_2" data-name="Layer 2"><g id="Layer_1-2" data-name="Layer 1"><path d="M11.49,23A11.49,11.49,0,1,1,23,11.5,11.49,11.49,0,0,1,11.49,23" fill="#0082c9"/><path d="M18.18,9.9v6.37H4.8V9.9l.24.16,4.36,3a3.71,3.71,0,0,0,4.17,0L18,10l.17-.11" fill="#fff"/><path d="M18.18,6.71c0,.43,0,.84,0,1.26,0,0-.06.1-.11.13L13.94,11l-1.28.88a2.18,2.18,0,0,1-2.36,0L4.9,8.1a.21.21,0,0,1-.11-.2c0-.4,0-.79,0-1.2Z" fill="#fff"/></g></g></svg>