<svg xmlns="http://www.w3.org/2000/svg" viewBox="0 0 35 22"><defs><style>.cls-1{fill:#fec20e;}</style></defs><title>Neutral</title><g id="Layer_2" data-name="Layer 2"><g id="Layer_1-2" data-name="Layer 1"><path class="cls-1" d="M32.57,22H2.43A2.43,2.43,0,0,1,0,19.57V15.44A2.43,2.43,0,0,1,2.43,13H32.57A2.43,2.43,0,0,1,35,15.44v4.13A2.43,2.43,0,0,1,32.57,22"/><path class="cls-1" d="M32.57,9H2.43A2.43,2.43,0,0,1,0,6.57V2.44A2.43,2.43,0,0,1,2.43,0H32.57A2.43,2.43,0,0,1,35,2.44V6.57A2.43,2.43,0,0,1,32.57,9"/></g></g></svg>