<svg xmlns="http://www.w3.org/2000/svg" viewBox="0 0 22.47 27.65"><title>News Reader</title><g id="Layer_2" data-name="Layer 2"><g id="Layer_1-2" data-name="Layer 1"><path d="M1.93,22.53a2.19,2.19,0,0,1-1.58-1A2.07,2.07,0,0,1,0,20.4a2.11,2.11,0,0,1,.54-1.47,2.15,2.15,0,0,1,1.39-.74v-4h3V11.74c.25,0,.48,0,.72,0a.65.65,0,0,0,.57-.21,6.52,6.52,0,0,1,1.59-1.19,7.14,7.14,0,0,1,6.53-.18,7.61,7.61,0,0,1,2.09,1.51.34.34,0,0,0,.22.08h3.9V12c0,2,0,4,0,6,0,.16.05.21.2.23a2.18,2.18,0,0,1,1.13,3.65,2.07,2.07,0,0,1-1.12.62l-.22,0c0,.2,0,.39,0,.59,0,.72,0,1.44,0,2.16a2.29,2.29,0,0,1-1.19,2.07,2.17,2.17,0,0,1-1.14.3H4.34a2.31,2.31,0,0,1-2-1.1,2.23,2.23,0,0,1-.36-1.25q0-1.29,0-2.57Zm3.38,4.26H18.19a1.39,1.39,0,0,0,1.4-1,3.31,3.31,0,0,0,.08-.86c0-.77,0-1.55,0-2.32,0-.05,0-.15-.08-.16a2.47,2.47,0,0,1-.91-.59.27.27,0,0,0-.17-.06H13c-.12,0-.15,0-.14-.15s0-.36,0-.53,0-.19.19-.19h5.12v-1H13c-.14,0-.2,0-.19-.18a3.6,3.6,0,0,0,0-.5c0-.15,0-.2.2-.2h4.27c.37,0,.75,0,1.12,0a.39.39,0,0,0,.25-.11,2.27,2.27,0,0,1,.84-.57.22.22,0,0,0,.17-.24q0-2.65,0-5.3c0-.06,0-.11,0-.17H5.81c0,.08,0,.15,0,.22q0,3.39,0,6.79c0,.59,0,1.18,0,1.77,0,1.31,0,2.62,0,3.93a2.18,2.18,0,0,1-.2,1c-.08.17-.18.33-.28.52M2.81,15.06c0,.05,0,.09,0,.14,0,1,0,2,0,2.93a.17.17,0,0,0,.13.18,2.19,2.19,0,0,1,1.3,1.28,2.07,2.07,0,0,1,0,1.4,2.12,2.12,0,0,1-1.36,1.42.15.15,0,0,0-.12.17c0,.91,0,1.81,0,2.72a1.44,1.44,0,0,0,.63,1.22.66.66,0,0,0,.92,0,1.48,1.48,0,0,0,.58-1.23q0-3.44,0-6.89V15.06Z" fill="#939598"/><path d="M11.24,9.2a4.6,4.6,0,1,1,4.6-4.65,4.59,4.59,0,0,1-4.6,4.65" fill="#939598"/><rect x="6.68" y="17.09" width="5.57" height="4.62" fill="#939598"/><rect x="6.64" y="24.75" width="12.12" height="0.84" fill="#939598"/><rect x="6.63" y="22.84" width="12.13" height="0.83" fill="#939598"/><path d="M16.42,13.16l-.29,1.16c-.14.56-.28,1.12-.41,1.69a.15.15,0,0,1-.18.14,4.72,4.72,0,0,0-.6,0c-.16,0-.22-.05-.25-.2-.11-.55-.22-1.09-.34-1.64l0-.15c-.13.6-.26,1.18-.38,1.75,0,.24,0,.24-.28.23H13a.17.17,0,0,1-.13-.09c-.24-1-.48-1.91-.72-2.88H13l.47,2.2h0c0-.24.08-.48.13-.72.1-.46.22-.92.32-1.38,0-.08.06-.13.16-.12h.48c.1,0,.14,0,.16.13.14.65.28,1.31.42,2,0,0,0,.08,0,.13l.35-1.6c0-.17.06-.34.11-.5a.17.17,0,0,1,.12-.11h.67" fill="#939598"/><path d="M8.78,15.26V13.18h.68v3h-1s-.11-.08-.14-.13l-1-1.85L7.31,14v2.09H6.64v-3h1s.09.08.12.13l.94,1.78.1.18" fill="#939598"/><path d="M15.81,17.95H13c-.13,0-.18,0-.18-.17s0-.36,0-.55,0-.16.16-.16h5.57c.21,0,.21,0,.21.21s0,.36,0,.55,0,.11-.11.11H15.81Z" fill="#939598"/><path d="M16.68,15.32a5.45,5.45,0,0,0,.53.17,2.53,2.53,0,0,0,.49,0,.23.23,0,0,0,.26-.17c0-.13,0-.21-.16-.27s-.45-.22-.67-.34a.83.83,0,0,1-.42-.92.79.79,0,0,1,.64-.66,2.16,2.16,0,0,1,1.41.16l-.12.29-.11.29c-.22-.05-.43-.12-.65-.15s-.32,0-.38.15.13.24.25.31.32.16.49.24a.81.81,0,0,1,.52.86.83.83,0,0,1-.6.78,2,2,0,0,1-1.38,0s-.1-.07-.1-.1c0-.21,0-.41,0-.63" fill="#939598"/><path d="M10.94,13.79v.49h.68c.18,0,.22,0,.22.21s0,.24,0,.35a.32.32,0,0,1,0,.06h-.87v.59h.94v.63H10.15v-3h1.74v.62Z" fill="#939598"/></g></g></svg>