<svg xmlns="http://www.w3.org/2000/svg" viewBox="0 0 15.56 12.3"><title>papers</title><g id="Layer_2" data-name="Layer 2"><g id="Layer_1-2" data-name="Layer 1"><path d="M0,10.14V.51A.48.48,0,0,1,.52,0H11.3c.32,0,.43.17.43.4v.81h1.52a.49.49,0,0,1,.54.53c0,.27,0,.54,0,.8V3H15a.48.48,0,0,1,.51.53c0,2.15,0,4.29,0,6.44a2.35,2.35,0,0,1-.13.74,2.38,2.38,0,0,1-2.33,1.62H3.92c-.51,0-1,0-1.52,0A2.35,2.35,0,0,1,0,10.14M1,1s0,.08,0,.12q0,4.4,0,8.79a1.41,1.41,0,0,0,1.45,1.44h8.82a2.79,2.79,0,0,1-.48-1.82c0-2.77,0-5.54,0-8.31,0-.07,0-.14,0-.21ZM11.73,2.19V6c0,1.29,0,2.58,0,3.87a1.43,1.43,0,1,0,2.85,0q0-2.88,0-5.77V3.93H13.8c0,.05,0,.1,0,.14V7.37c0,.63,0,1.26,0,1.9a.48.48,0,0,1-.48.5.49.49,0,0,1-.49-.48s0-.09,0-.14q0-3.4,0-6.8V2.19Z" fill="#939598"/><path d="M5.85,1.55h4c.35,0,.47.12.47.47q0,1.11,0,2.22c0,.33-.13.46-.46.46H1.72a.35.35,0,0,1-.32-.35q0-1.22,0-2.44c0-.22.16-.35.41-.35h4ZM2.13,4H9.56V2.28H2.13Z" fill="#939598"/><path d="M7.42,7.51V6c0-.3.14-.44.45-.44h2c.32,0,.45.13.45.44q0,1.52,0,3a.38.38,0,0,1-.43.43h-2c-.3,0-.43-.14-.43-.44,0-.51,0-1,0-1.52M9.56,6.3H8.15V8.74H9.56Z" fill="#939598"/><path d="M4.18,8.75H6.29a.36.36,0,1,1,0,.72H2a.37.37,0,0,1-.36-.36A.36.36,0,0,1,2,8.75H4.18Z" fill="#939598"/><path d="M4.17,6.29H2a.36.36,0,0,1-.38-.35A.37.37,0,0,1,2,5.57H6.27a.6.6,0,0,1,.31.1.32.32,0,0,1,.1.39.35.35,0,0,1-.35.23H4.17Z" fill="#939598"/><path d="M4.18,7.16H6.29a.37.37,0,0,1,.39.23.36.36,0,0,1-.34.48H2.1c-.28,0-.45-.14-.45-.36s.17-.36.45-.36H4.18" fill="#939598"/></g></g></svg>