<svg xmlns="http://www.w3.org/2000/svg" viewBox="0 0 12.75 16.17"><title>person</title><g id="Layer_2" data-name="Layer 2"><g id="Layer_1-2" data-name="Layer 1"><path d="M5.87,0a.29.29,0,0,0,0,.58,6.3,6.3,0,0,1,6.29,6.29.29.29,0,1,0,.58,0A6.88,6.88,0,0,0,5.87,0" fill="#939598"/><path d="M9.89,6.88a.29.29,0,1,0,.58,0,4.61,4.61,0,0,0-4.6-4.6.29.29,0,0,0,0,.58,4,4,0,0,1,4,4" fill="#939598"/><path d="M5.87,9.72A2.84,2.84,0,1,0,3,6.88,2.84,2.84,0,0,0,5.87,9.72" fill="#939598"/><path d="M5.87,10.11A5.87,5.87,0,0,0,0,16H0a.19.19,0,0,0,.19.19H11.55a.19.19,0,0,0,.19-.19h0a5.87,5.87,0,0,0-5.87-5.87" fill="#939598"/></g></g></svg>