<svg xmlns="http://www.w3.org/2000/svg" viewBox="0 0 22.98 22.97"><title>Print</title><g id="Layer_2" data-name="Layer 2"><g id="Layer_1-2" data-name="Layer 1"><path d="M23,11.48A11.49,11.49,0,1,1,11.43,0,11.48,11.48,0,0,1,23,11.48" fill="#0082c9"/><path d="M6.72,5.54A1.38,1.38,0,0,1,8.1,4.33h8.73a1.36,1.36,0,0,1,1.38,1.32c0,.58,0,1.15,0,1.73q0,3.12,0,6.24c0,.66,0,1.32,0,2a1.34,1.34,0,0,1-1.14,1.21V7.37a1.79,1.79,0,0,0-1.56-1.82,2,2,0,0,0-.29,0H6.72Z" fill="#fff"/><path d="M5,12.35c0-1.61,0-3.22,0-4.83A1.41,1.41,0,0,1,6.16,6.11l.22,0h8.75a1.37,1.37,0,0,1,1.38,1.37q0,4,0,8.09c0,.55,0,1.1,0,1.65a1.38,1.38,0,0,1-1.41,1.41H6.41A1.37,1.37,0,0,1,5,17.22C5,16.09,5,15,5,13.85v-1.5Zm5.7,3H15a.58.58,0,0,0-.11-1.16h-7c-.46,0-.91,0-1.37,0a.77.77,0,0,0-.36.11.55.55,0,0,0-.22.64.56.56,0,0,0,.55.41H10.7m0-4H15a.5.5,0,0,0,.39-.21.55.55,0,0,0,.07-.61.59.59,0,0,0-.58-.33H6.4a.55.55,0,0,0-.47.37A.56.56,0,0,0,6,11.1a.63.63,0,0,0,.52.2H10.7m0,.86H6.48a.57.57,0,0,0-.55.4.58.58,0,0,0,.59.76H15a.58.58,0,1,0,0-1.16h-4.2m0,4H6.48a.54.54,0,0,0-.46.24A.55.55,0,0,0,6,17a.57.57,0,0,0,.54.31h8a4.79,4.79,0,0,0,.51,0,.57.57,0,0,0,.49-.55.58.58,0,0,0-.62-.6H10.71m-.38-8.78,0,.09.49,1.65c0,.1,0,.25.11.3s.22,0,.33,0a.13.13,0,0,0,.16-.11l.34-1L12,7.78l.46,1.37c.11.33.11.33.46.33.09,0,.12,0,.14-.11L13.44,8l.31-1h-.29c-.29,0-.29,0-.36.29l-.35,1.33-.06-.17-.37-1.11c-.11-.33-.11-.33-.46-.33a.13.13,0,0,0-.14.11l-.47,1.41,0,.08c-.13-.51-.27-1-.39-1.48,0-.09-.06-.12-.15-.12h-2V9.47h1.68V9H9.16V8.37h1V7.9h-1v-.5Zm-4.2-.48V9.47h.53V7.82l.08.1,1,1.47s.06.08.09.08h.43V6.94H7.75V8.55l-.09-.12L6.66,7a.21.21,0,0,0-.13-.09H6.13m9.31.18a1.45,1.45,0,0,0-1-.2.89.89,0,0,0-.51.25.62.62,0,0,0,0,.91,2.83,2.83,0,0,0,.53.3l.35.14a.26.26,0,0,1,.17.27.26.26,0,0,1-.23.22,1,1,0,0,1-.8-.14l-.12-.08-.23.46.05,0,.18.1a1.4,1.4,0,0,0,1.38-.06.69.69,0,0,0,0-1.19,5.27,5.27,0,0,0-.5-.21,1.72,1.72,0,0,1-.32-.16.17.17,0,0,1,0-.31.41.41,0,0,1,.22-.06c.21,0,.42.06.66.1l.22-.37" fill="#fff"/></g></g></svg>