<svg xmlns="http://www.w3.org/2000/svg" viewBox="0 0 11.56 15.84"><title>record</title><g id="Layer_2" data-name="Layer 2"><g id="Layer_1-2" data-name="Layer 1"><path d="M0,15.84c0-.06,0-.12,0-.18V.18C0,.12,0,.06,0,0H9.09l2.34,2.74a.5.5,0,0,1,.13.35q0,6.28,0,12.56c0,.06,0,.13,0,.2Zm11-.52V3.38H8.46V3.19c0-.83,0-1.66,0-2.49,0-.16,0-.19-.19-.19H.52v14.8ZM10.87,2.87,9,.65V2.87Z" fill="#939598"/><rect x="3.89" y="7.27" width="1.11" height="5.66" fill="#939598"/><rect x="7.62" y="7.73" width="1.11" height="5.19" fill="#939598"/><path d="M5.76,8.8h1c.11,0,.11.06.11.14,0,.46,0,.93,0,1.39v2.58H5.76Z" fill="#939598"/><rect x="2.06" y="8.81" width="1.12" height="4.11" fill="#939598"/><rect x="1.36" y="13.91" width="8.45" height="0.38" fill="#939598"/><rect x="1.23" y="5.33" width="6.56" height="0.38" fill="#939598"/><rect x="1.23" y="4.22" width="6.57" height="0.39" fill="#939598"/><rect x="1.23" y="3.12" width="6.56" height="0.38" fill="#939598"/></g></g></svg>