<svg xmlns="http://www.w3.org/2000/svg" viewBox="0 0 23.94 17.51"><title>Setting</title><g id="Layer_2" data-name="Layer 2"><g id="Layer_1-2" data-name="Layer 1"><rect y="1.52" width="23.94" height="0.5" fill="#0082c9"/><path d="M18.4,1.77A1.77,1.77,0,1,1,16.63,0,1.77,1.77,0,0,1,18.4,1.77" fill="#0082c9"/><rect y="6.18" width="23.94" height="0.5" fill="#0082c9"/><path d="M7.76,6.43A1.77,1.77,0,1,1,6,4.66,1.77,1.77,0,0,1,7.76,6.43" fill="#0082c9"/><rect y="10.83" width="23.94" height="0.5" fill="#0082c9"/><path d="M20.4,11.08a1.77,1.77,0,1,1-1.77-1.77,1.77,1.77,0,0,1,1.77,1.77" fill="#0082c9"/><rect y="15.49" width="23.94" height="0.5" fill="#0082c9"/><path d="M7.76,15.74A1.77,1.77,0,1,1,6,14a1.77,1.77,0,0,1,1.77,1.77" fill="#0082c9"/></g></g></svg>