<svg xmlns="http://www.w3.org/2000/svg" viewBox="0 0 34.82 34.79"><title>Share</title><g id="Layer_2" data-name="Layer 2"><g id="Layer_1-2" data-name="Layer 1"><path d="M19,34.78C8.65,35,1.14,28.17.13,19.54A17.16,17.16,0,0,1,5.42,4.77,16.1,16.1,0,0,1,13.57.41a17.23,17.23,0,0,1,16.51,5,16.35,16.35,0,0,1,4.48,8.89,17.05,17.05,0,0,1-4.22,14.73A16.54,16.54,0,0,1,19,34.78" fill="#b1b3b6"/><path d="M20.78,12.56l.13.1a3.11,3.11,0,0,0,2.62.75,3.53,3.53,0,0,0,2.75-3,3.14,3.14,0,0,0-1.11-2.61,3.24,3.24,0,0,0-5.32,3,.18.18,0,0,1-.08.2l-3.32,2.55L13,16.17a.28.28,0,0,1-.27,0,3.15,3.15,0,0,0-3.23.4A3.24,3.24,0,0,0,13,22a.28.28,0,0,1,.27,0c1.07.41,2.15.77,3.2,1.3s2.36.78,3.53,1.23c.09,0,.1.1.11.18a3.38,3.38,0,0,0,.56,1.7,3.25,3.25,0,0,0,5.93-2.16,3.2,3.2,0,0,0-2.39-2.78,3.15,3.15,0,0,0-3.47,1.22c-.06.08-.12.08-.2,0L18.42,22l-3.15-1.19-.8-.3c.06-.23.13-.44.17-.65a3.17,3.17,0,0,0-.31-2.13c0-.08,0-.13,0-.19L16,16.21,18.94,14l1.84-1.42" fill="#fff"/><path d="M20.78,12.56l.13.1a3.11,3.11,0,0,0,2.62.75,3.53,3.53,0,0,0,2.75-3,3.14,3.14,0,0,0-1.11-2.61,3.24,3.24,0,0,0-5.32,3,.18.18,0,0,1-.08.2l-3.32,2.55L13,16.17a.28.28,0,0,1-.27,0,3.15,3.15,0,0,0-3.23.4A3.24,3.24,0,0,0,13,22a.28.28,0,0,1,.27,0c1.07.41,2.15.77,3.2,1.3s2.36.78,3.53,1.23c.09,0,.1.1.11.18a3.38,3.38,0,0,0,.56,1.7,3.25,3.25,0,0,0,5.93-2.16,3.2,3.2,0,0,0-2.39-2.78,3.15,3.15,0,0,0-3.47,1.22c-.06.08-.12.08-.2,0L18.42,22l-3.15-1.19-.8-.3c.06-.23.13-.44.17-.65a3.17,3.17,0,0,0-.31-2.13c0-.08,0-.13,0-.19L16,16.21,18.94,14Z" fill="none" stroke="#fff" stroke-miterlimit="10" stroke-width="0.5"/></g></g></svg>