<svg xmlns="http://www.w3.org/2000/svg" viewBox="0 0 18.68 18.68"><title>share internal</title><g id="Layer_2" data-name="Layer 2"><g id="Layer_1-2" data-name="Layer 1"><path d="M18.43,9.34A9.09,9.09,0,1,1,9.34.25a9.09,9.09,0,0,1,9.09,9.09" fill="#fff"/><circle cx="9.34" cy="9.34" r="9.09" fill="none" stroke="#77787b" stroke-miterlimit="10" stroke-width="0.5"/><polyline points="11.76 13.31 4.92 9.34 11.76 5.37" fill="#fff"/><polyline points="11.76 13.31 4.92 9.34 11.76 5.37" fill="none" stroke="#77787b" stroke-miterlimit="10" stroke-width="0.5"/><path d="M6.12,9.26A1.25,1.25,0,1,1,4.88,8,1.25,1.25,0,0,1,6.12,9.26" fill="#77787b"/><path d="M13,5.35A1.25,1.25,0,1,1,11.72,4.1,1.25,1.25,0,0,1,13,5.35" fill="#77787b"/><path d="M13,13.31a1.25,1.25,0,1,1-1.25-1.25A1.25,1.25,0,0,1,13,13.31" fill="#77787b"/></g></g></svg>