<svg xmlns="http://www.w3.org/2000/svg" viewBox="0 0 22.98 22.97"><title>Social</title><g id="Layer_2" data-name="Layer 2"><g id="Layer_1-2" data-name="Layer 1"><path d="M23,11.48A11.49,11.49,0,1,1,11.43,0,11.48,11.48,0,0,1,23,11.48" fill="#0082c9"/><path d="M18.75,11.52c0,.13,0,.26,0,.39a.14.14,0,0,0,.08.15,2,2,0,0,1,1,1.81,2,2,0,0,1-2.47,1.85c-.07,0-.11,0-.15.06a6.62,6.62,0,0,1-2.78,2,6.47,6.47,0,0,1-3,.37L10.79,18a.11.11,0,0,0-.14.07A1.54,1.54,0,0,1,8,18.18a1.47,1.47,0,0,1-.13-1.41.13.13,0,0,0,0-.18,6.28,6.28,0,0,1-1.33-1.52c-.15-.24-.27-.51-.4-.76a5.46,5.46,0,0,1-.55-1.72c0-.27-.06-.53-.08-.8a.14.14,0,0,0-.09-.14,2,2,0,0,1-1.09-1.45A2,2,0,0,1,6,7.89c.14,0,.29,0,.44,0a.2.2,0,0,0,.13-.06,6.75,6.75,0,0,1,2.05-2,.09.09,0,0,0,.05-.12,1.36,1.36,0,0,1,0-.84A1.75,1.75,0,0,1,9,4.35a1.51,1.51,0,0,1,2.53.41.14.14,0,0,0,.16.1,6.34,6.34,0,0,1,2.36.29,6.56,6.56,0,0,1,4.09,3.62A6,6,0,0,1,18.59,10a6.85,6.85,0,0,1,.16,1.48M8.14,9.21a2,2,0,0,1-.74,2.29c-.06,0,0,.09,0,.14a4.75,4.75,0,0,0,2.21,2.54,5.88,5.88,0,0,0,3.67.68,6.66,6.66,0,0,0,2.3-.69l.1,0c.14,0,.19-.08.19-.22s0-.15,0-.22A2,2,0,0,1,17,12l.16-.08A6.43,6.43,0,0,0,13.92,9c0-.36.05-.71.08-1.05a7.63,7.63,0,0,1,3.71,2.94c0-.06,0-.08,0-.11A5.46,5.46,0,0,0,16.59,8.1a5.54,5.54,0,0,0-4.93-2.22.17.17,0,0,0-.12.08,1.51,1.51,0,0,1-2.18.7.14.14,0,0,0-.17,0,5.3,5.3,0,0,0-1.05.82c-.24.25-.46.52-.68.77.07.1.12.1.2.06a6.72,6.72,0,0,1,2.21-.79l.45-.06-.13,1c-.34.09-.69.17-1,.28a4.34,4.34,0,0,0-1,.45m8.25,6a1,1,0,0,1-.11-.14c-.05-.09-.11-.1-.21,0a7.59,7.59,0,0,1-4.85.77,6.22,6.22,0,0,1-3.62-2,5.09,5.09,0,0,1-1-1.65l-.05-.09a5.17,5.17,0,0,0,.35,1.51,6,6,0,0,0,.47.91A5.28,5.28,0,0,0,8.56,15.9a.16.16,0,0,0,.13,0,1.56,1.56,0,0,1,2.1,1,.15.15,0,0,0,.1.09,7.67,7.67,0,0,0,.81.12,5.56,5.56,0,0,0,2.65-.46,5.66,5.66,0,0,0,2-1.51m2.42-1.39a1,1,0,1,0-2,0,1,1,0,0,0,1,1,1,1,0,0,0,1-1M6.24,10.86a1,1,0,1,0-1-1,1,1,0,0,0,1,1m3,7a.54.54,0,0,0,.55-.53.55.55,0,0,0-.53-.55.54.54,0,0,0,0,1.08m.85-12a.5.5,0,0,0,.51-.51.52.52,0,0,0-.51-.51.52.52,0,0,0-.51.52.51.51,0,0,0,.52.51" fill="#fff"/><path d="M9.28,13.44A.46.46,0,0,1,9,13a2.65,2.65,0,0,1,.63-1.76,2.7,2.7,0,0,1,1.46-.77.93.93,0,0,0,.32-.15.36.36,0,0,0,.06-.56A2.05,2.05,0,0,1,11.06,9,2.23,2.23,0,0,1,11,8.19a1,1,0,0,1,1-1,1.81,1.81,0,0,1,.46,0,1,1,0,0,1,.77,1,2.26,2.26,0,0,1-.15,1,2.16,2.16,0,0,1-.32.53.4.4,0,0,0,.1.64,1.41,1.41,0,0,0,.35.13,2.5,2.5,0,0,1,1.55,1,2.53,2.53,0,0,1,.42,1.18c0,.13,0,.26,0,.39a.41.41,0,0,1-.29.43,47.09,47.09,0,0,1-5.62,0" fill="#fff"/></g></g></svg>