<svg xmlns="http://www.w3.org/2000/svg" viewBox="0 0 21.53 20.52"><title>star</title><g id="Layer_2" data-name="Layer 2"><g id="Layer_1-2" data-name="Layer 1"><path d="M10.46.64c.17-.52.45-.52.62,0l2,6.12a1.47,1.47,0,0,0,1.31,1H20.8c.55,0,.64.27.19.59l-5.2,3.78a1.48,1.48,0,0,0-.5,1.54l2,6.12c.17.52-.06.69-.5.36l-5.21-3.78a1.47,1.47,0,0,0-1.62,0L4.75,20.1c-.44.32-.67.16-.5-.36l2-6.12a1.47,1.47,0,0,0-.5-1.54L.53,8.3C.09,8,.18,7.71.73,7.71H7.16a1.47,1.47,0,0,0,1.31-1Z" fill="#fff"/><path d="M10.46.64c.17-.52.45-.52.62,0l2,6.12a1.47,1.47,0,0,0,1.31,1H20.8c.55,0,.64.27.19.59l-5.2,3.78a1.48,1.48,0,0,0-.5,1.54l2,6.12c.17.52-.06.69-.5.36l-5.21-3.78a1.47,1.47,0,0,0-1.62,0L4.75,20.1c-.44.32-.67.16-.5-.36l2-6.12a1.47,1.47,0,0,0-.5-1.54L.53,8.3C.09,8,.18,7.71.73,7.71H7.16a1.47,1.47,0,0,0,1.31-1Z" fill="none" stroke="#77787b" stroke-miterlimit="10" stroke-width="0.5"/></g></g></svg>