<svg xmlns="http://www.w3.org/2000/svg" viewBox="0 0 22.98 22.97"><title>TV</title><g id="Layer_2" data-name="Layer 2"><g id="Layer_1-2" data-name="Layer 1"><path d="M23,11.48A11.49,11.49,0,1,1,11.43,0,11.48,11.48,0,0,1,23,11.48" fill="#0082c9"/><path d="M14.07,17.17h-5c-.23-.1-.3-.22-.25-.4a.32.32,0,0,1,.35-.22h.64v-.82H4.91c-.35,0-.45-.1-.45-.45v-9c0-.34.11-.46.46-.46H18.06a.46.46,0,0,1,.46.24v9.42a.4.4,0,0,1-.42.25H13.33v.82H14a.33.33,0,0,1,.35.21c.06.18,0,.31-.25.41m-2.58-2.91h5.79a.3.3,0,0,0,.28-.26,1.1,1.1,0,0,0,0-.19q0-3.38,0-6.75a1.3,1.3,0,0,0,0-.18.29.29,0,0,0-.24-.26l-.2,0H5.86l-.19,0a.3.3,0,0,0-.26.28,1.52,1.52,0,0,0,0,.18q0,3.36,0,6.73a1.13,1.13,0,0,0,0,.22.3.3,0,0,0,.25.24,1,1,0,0,0,.19,0h5.63" fill="#fff"/></g></g></svg>