<svg xmlns="http://www.w3.org/2000/svg" viewBox="0 0 15.76 12.93"><title>upload</title><g id="Layer_2" data-name="Layer 2"><g id="Layer_1-2" data-name="Layer 1"><path d="M5.59,9V11.2s0,0-.06,0a21.74,21.74,0,0,1-2.66-.1A3.61,3.61,0,0,1,0,7.74,3.69,3.69,0,0,1,3.3,4a.26.26,0,0,0,.18-.16A4.89,4.89,0,0,1,4.76,1.42,4.55,4.55,0,0,1,7.33.07a4.69,4.69,0,0,1,4.13,1.24,4.6,4.6,0,0,1,1.45,3c0,.25,0,.51,0,.77a3.06,3.06,0,0,1,2,1,3.09,3.09,0,0,1-.79,4.7,3.14,3.14,0,0,1-1.56.41h-3V9h.74a.84.84,0,0,0,.85-.51.89.89,0,0,0-.15-1L8.37,4.26a1,1,0,0,0-1.5,0C5.94,5.35,5,6.48,4.11,7.6A.83.83,0,0,0,4,8.52a.85.85,0,0,0,.8.51c.26,0,.51,0,.78,0" fill="#939598"/><path d="M9,8.41C9,9.64,9,10.82,9,12a.85.85,0,0,1-.92.94c-.35,0-.69,0-1,0a.83.83,0,0,1-.83-.83c0-1.12,0-2.25,0-3.37,0-.23-.06-.33-.31-.32s-.73,0-1.09,0c-.09,0-.24-.07-.26-.14a.43.43,0,0,1,.06-.35C5.49,6.84,6.37,5.77,7.25,4.7a.41.41,0,0,1,.69,0c.87,1.07,1.75,2.13,2.61,3.2a.47.47,0,0,1,.08.37c0,.07-.19.13-.3.13-.44,0-.88,0-1.34,0" fill="#939598"/></g></g></svg>