<svg xmlns="http://www.w3.org/2000/svg" viewBox="0 0 22.98 22.97"><title>Web</title><g id="Layer_2" data-name="Layer 2"><g id="Layer_1-2" data-name="Layer 1"><path d="M23,11.48A11.49,11.49,0,1,1,11.43,0,11.48,11.48,0,0,1,23,11.48" fill="#0082c9"/><path d="M3.67,11c0-.07,0-.14,0-.22a8,8,0,0,1,.19-1.11A8.7,8.7,0,0,1,4.5,7.89a.06.06,0,0,1,.07,0H7.19A10.32,10.32,0,0,0,6.5,11H3.67Z" fill="#fff"/><path d="M3.67,11.87H6.45s0,0,.05.05c0,.23,0,.45.05.68a9,9,0,0,0,.17,1.07,9.8,9.8,0,0,0,.37,1.27v0H4.51a.06.06,0,0,1-.06,0,8.13,8.13,0,0,1-.77-3v-.11Z" fill="#fff"/><path d="M12.42,3.66l.2,0a7.85,7.85,0,0,1,1,.21,7.74,7.74,0,0,1,1.92.83,7.64,7.64,0,0,1,2.23,2l.2.29V7H15.3a.06.06,0,0,1-.07,0,9,9,0,0,0-1.3-1.92,7.28,7.28,0,0,0-1-.92l-.55-.4,0,0,0,0,0-.06Z" fill="#fff"/><path d="M15.44,11H11.79V7.85h2.85a.05.05,0,0,1,.06,0,8.84,8.84,0,0,1,.58,1.87,9.07,9.07,0,0,1,.14,1l0,.27" fill="#fff"/><path d="M11.77,11.89h3.65s0,0,0,0c0,.21,0,.43-.05.64a8.18,8.18,0,0,1-.19,1.08,9.13,9.13,0,0,1-.42,1.3s0,0-.05,0H11.77Z" fill="#fff"/><path d="M11,7.87v3.2H7.4c0-.08,0-.16,0-.24s0-.36.06-.54.09-.53.14-.79a8.52,8.52,0,0,1,.52-1.59.05.05,0,0,1,.06,0H11Z" fill="#fff"/><path d="M7.4,11.89H11V15H8.12a.05.05,0,0,1-.06,0,8,8,0,0,1-.49-1.61c-.05-.28-.09-.57-.13-.86s0-.38,0-.56v0" fill="#fff"/><path d="M19.31,11.06h-3a10.43,10.43,0,0,0-.7-3.21h2.79a.05.05,0,0,1,.06,0,7.81,7.81,0,0,1,.69,2A8.65,8.65,0,0,1,19.31,11s0,0,0,.06" fill="#fff"/><path d="M16.32,11.87h3s0,.06,0,.08a7.77,7.77,0,0,1-.78,3,0,0,0,0,1,0,0H15.7a10,10,0,0,0,.62-3.11" fill="#fff"/><path d="M18,15.81l-.23.33a8.38,8.38,0,0,1-1,1.15,7.66,7.66,0,0,1-1.12.86,7.78,7.78,0,0,1-1.52.75,7.67,7.67,0,0,1-1.29.35l-.42.06a.12.12,0,0,1-.11,0l.12-.09a8.33,8.33,0,0,0,1.46-1.28,9,9,0,0,0,1.37-2,.07.07,0,0,1,.08,0H18Z" fill="#fff"/><path d="M4.94,15.78H7.41a.07.07,0,0,1,.07,0,9.3,9.3,0,0,0,.89,1.46,9.2,9.2,0,0,0,1,1.16,8.15,8.15,0,0,0,1,.81h0s-.06,0-.09,0a7.8,7.8,0,0,1-1.76-.47,7.67,7.67,0,0,1-1.88-1.07A7.24,7.24,0,0,1,5,15.8v0" fill="#fff"/><path d="M5,7l.25-.33A9.2,9.2,0,0,1,6,5.82,7.72,7.72,0,0,1,9.18,4a7.56,7.56,0,0,1,1.05-.24l.15,0h0l0,0,0,0-.18.13A9,9,0,0,0,8.9,5.09,8.33,8.33,0,0,0,7.78,6.61L7.58,7a.05.05,0,0,1-.06,0H5" fill="#fff"/><path d="M11.77,15.81h2.58a8.43,8.43,0,0,1-2.58,2.81Z" fill="#fff"/><path d="M11,18.55a8,8,0,0,1-2.48-2.75H11Z" fill="#fff"/><path d="M11.79,4.41A7.9,7.9,0,0,1,14.27,7H11.79Z" fill="#fff"/><path d="M11,7H8.58A7.52,7.52,0,0,1,11,4.49Z" fill="#fff"/></g></g></svg>